<svg width="42" height="42" viewBox="0 0 42 42" fill="none" xmlns="http://www.w3.org/2000/svg">
<path d="M10.5 10.5C10.5 7.71523 11.6062 5.04451 13.5754 3.07538C15.5445 1.10625 18.2152 0 21 0C23.7848 0 26.4555 1.10625 28.4246 3.07538C30.3938 5.04451 31.5 7.71523 31.5 10.5V14.7C31.5 17.4848 30.3938 20.1555 28.4246 22.1246C26.4555 24.0938 23.7848 25.2 21 25.2C18.2152 25.2 15.5445 24.0938 13.5754 22.1246C11.6062 20.1555 10.5 17.4848 10.5 14.7V10.5ZM0 35.028C6.38087 31.3321 13.6261 29.3904 21 29.4C28.644 29.4 35.826 31.437 42 35.028V42H0V35.028Z" fill=""/>
</svg>
